<svg width="20" height="20" clip-rule="evenodd" fill-rule="evenodd" image-rendering="optimizeQuality" shape-rendering="geometricPrecision" text-rendering="geometricPrecision" viewBox="0 0 1.69334 1.69334" xmlns="http://www.w3.org/2000/svg"><g id="&#x56FE;&#x5C42;_x0020_1"><circle cx=".847" cy=".847" fill="#48b02c" r=".847"/><g id="_210177520" fill="#fff"><path id="_210177664" d="m.84667.25399c.16362 0 .31179.06637.41905.17363s.17363.25543.17363.41905-.06637.31179-.17363.41905-.25543.17363-.41905.17363-.31179-.06637-.41905-.17363-.17363-.25543-.17363-.41905.06637-.31179.17363-.41905.25543-.17363.41905-.17363zm.35919.23349c-.09193-.09193-.21894-.14881-.35919-.14881s-.26726.05688-.35919.14881-.14881.21894-.14881.35919.05688.26726.14881.35919.21894.14881.35919.14881.26726-.05688.35919-.14881.14881-.21894.14881-.35919-.05688-.26726-.14881-.35919z" fill-rule="nonzero"/><g><circle id="_210177592" cx=".634" cy=".667" r=".085"/><circle id="_210177688" cx="1.06" cy=".667" r=".085"/></g><path id="_210177904" d="m1.0947.93391c.01269-.01954.03884-.02509.05838-.0124s.02509.03884.0124.05838c-.05129.07912-.12782.13339-.21292.15798-.08518.02461-.17892.01954-.26449-.01999-.03267-.01509-.06304-.03485-.09017-.05849l-.00008.0001c-.02689-.02343-.05056-.05081-.07012-.08136-.0126-.01963-.0069-.04577.01273-.05837s.04577-.0069.05837.01273c.01507.02352.0335.04479.05458.06316l-.00008.0001.00008.00007c.02085.01817.04445.03348.07007.04532.06666.03079.13954.03478.20563.01569.06618-.01912.12571-.06135.16562-.12292z" fill-rule="nonzero"/></g></g></svg>