<svg height="20" width="20" viewBox="0 0 512 512" xmlns="http://www.w3.org/2000/svg"><path d="m512 256c0 141.386719-114.613281 256-256 256s-256-114.613281-256-256 114.613281-256 256-256 256 114.613281 256 256zm0 0" fill="#6dcd01"/><path d="m352 208h-48v-48c0-8.835938-7.164062-16-16-16h-64c-8.835938 0-16 7.164062-16 16v48h-48c-8.835938 0-16 7.164062-16 16v64c0 8.835938 7.164062 16 16 16h48v48c0 8.835938 7.164062 16 16 16h64c8.835938 0 16-7.164062 16-16v-48h48c8.835938 0 16-7.164062 16-16v-64c0-8.835938-7.164062-16-16-16zm0 0" fill="#fff"/></svg>