<svg version="1.1" width="20" height="20" clip-rule="evenodd" fill-rule="evenodd" image-rendering="optimizeQuality" shape-rendering="geometricPrecision" text-rendering="geometricPrecision" viewBox="0 0 1.69334 1.69334" xmlns="http://www.w3.org/2000/svg"><g id="&#x56FE;&#x5C42;_x0020_1">
<circle cx=".847" cy=".847" fill="#178feb" r=".847"/>
<path d="m1.23823.93494v.41263c0 .01799-.00727.03444-.01897.04644-.012.01231-.02857.01996-.04683.01996h-.19096c-.01825 0-.03482-.00764-.04683-.01996-.0117-.012-.01897-.02845-.01897-.04644v-.21955h-.13802v.21955c0 .01795-.00725.03443-.01896.04644-.012.01231-.02857.01996-.04683.01996h-.19097c-.01825 0-.03482-.00764-.04683-.01996-.01171-.01201-.01896-.02846-.01896-.04644v-.41263h-.13525c-.01332 0-.02591-.00397-.03658-.01116-.0103-.00697-.01862-.017-.02382-.02933-.00514-.01221-.00655-.02503-.00446-.03719.00212-.01238.00776-.0241.01669-.03382l.25333-.27579.27348-.29774c.0063-.00685.01363-.01215.02182-.01575.00135-.00059.00271-.00111.00408-.00155.00722-.00266.01468-.004.02227-.004.00904 0 .01786.0019.02632.00563l.00003-.00008c.0082.00361.01553.00891.02182.01575l.27348.29774.25333.27579c.00112.00122.00215.00249.0031.00379.00716.00897.01174.01928.01359.03003.00212.01236.00074.0252-.00429.03719-.00078.00186-.00168.00364-.00268.00532-.0052.00991-.01253.01807-.02131.02401-.00131.00088-.00265.00168-.00402.0024-.00979.00566-.02088.00876-.03257.00876zm-.08468.39435v-.41264c0-.01802.00726-.03445.01896-.04643.01201-.01232.0286-.01996.04684-.01996h.11219l-.22541-.24539-.25947-.28249-.25947.28249-.22541.24539h.11219c.01825 0 .03481.00764.04685.01996.0117.01198.01896.02841.01896.04643v.41264h.15319v-.21956c0-.01799.00726-.03445.01896-.04643.01201-.01232.0286-.01996.04684-.01996h.17578c.01822 0 .03482.00765.04684.01995.01171.01201.01896.02845.01896.04644v.21956z" fill="#fff" fill-rule="nonzero"/></g>
</svg>