<svg width="20" height="20" clip-rule="evenodd" fill-rule="evenodd" image-rendering="optimizeQuality" shape-rendering="geometricPrecision" text-rendering="geometricPrecision" viewBox="0 0 1.69334 1.69334" xmlns="http://www.w3.org/2000/svg"><g id="&#x56FE;&#x5C42;_x0020_1"><circle cx=".847" cy=".847" fill="#48b02c" r=".847"/><g id="_210195184" fill="#fff"><path id="_213484496" d="m.48837.50836.07477.29624c.04282-.03039.08758-.05377.13492-.06758.06898-.02012.14219-.01974.22114.0088.06221.0225.13599-.01062.20974-.04373.02931-.01315.05862-.02632.08827-.03684l-.04053-.16055-.03072-.12171c-.02796.02179-.06202.03808-.10244.04829-.06551.01654-.14814.0166-.24888-.00257-.07013-.01335-.14518.01685-.22019.04705-.02856.01149-.05713.023-.08608.0326zm.00871.37996-.10065-.39875c-.00566-.02264.00812-.0456.03076-.05126.03802-.0096.07694-.02527.11584-.04093.08647-.03481.17296-.06963.26715-.05169.08827.0168.15883.0172.21284.00357.05057-.01277.08595-.03831.1072-.07434.00545-.01004.01494-.01787.0269-.02086.02264-.00566.0456.00812.05126.03076l.05032.19938.05033.19938c.00566.02264-.00812.0456-.03076.05126-.0371.00936-.07603.02685-.11493.04431-.08928.04008-.17858.08016-.27292.04605-.06075-.02196-.11661-.02239-.16888-.00714-.05357.01562-.10469.04788-.15422.09054-.00513.00493-.01158.00863-.01898.01048-.02264.00566-.0456-.00812-.05126-.03076z" fill-rule="nonzero"/><path id="_213483776" d="m.41473.39308c.02254-.00583.04594.00804.05159.03038l.24304.96416c.00564.02234-.00786.04576-.0304.05159-.02253.00583-.04589-.00781-.05159-.03038l-.24304-.96417c-.00569-.02258.00786-.04576.0304-.05158z"/></g></g></svg>