<svg height="24" width="24" viewBox="-48 0 512 512" xmlns="http://www.w3.org/2000/svg"><path d="m368 192h-320c-5.453125-.015625-10.867188-.960938-16-2.800781v274.800781c.027344 26.5 21.5 47.972656 48 48h256c26.5-.027344 47.972656-21.5 48-48v-274.800781c-5.132812 1.839843-10.546875 2.785156-16 2.800781zm0 0" fill="#6dcd01"/><g fill="#fff"><path d="m208 416c-8.835938 0-16-7.164062-16-16v-128c0-8.835938 7.164062-16 16-16s16 7.164062 16 16v128c0 8.835938-7.164062 16-16 16zm0 0"/><path d="m272 416c-8.835938 0-16-7.164062-16-16v-128c0-8.835938 7.164062-16 16-16s16 7.164062 16 16v128c0 8.835938-7.164062 16-16 16zm0 0"/><path d="m144 416c-8.835938 0-16-7.164062-16-16v-128c0-8.835938 7.164062-16 16-16s16 7.164062 16 16v128c0 8.835938-7.164062 16-16 16zm0 0"/></g><path d="m272 64v-48c0-8.835938-7.164062-16-16-16h-96c-8.835938 0-16 7.164062-16 16v48zm0 0" fill="#6dcd01"/><path d="m48 64h320c26.507812 0 48 21.492188 48 48v32c0 26.507812-21.492188 48-48 48h-320c-26.507812 0-48-21.492188-48-48v-32c0-26.507812 21.492188-48 48-48zm0 0" fill="#88fa00"/></svg>