<svg
	version="1.1"
	clip-rule="evenodd"
	fill-rule="evenodd"
	image-rendering="optimizeQuality"
	shape-rendering="geometricPrecision"
	text-rendering="geometricPrecision"
	viewBox="0 0 1.69334 1.69334"
	width="20"
	height="20"
	xmlns="http://www.w3.org/2000/svg">
	<g id="&#x56FE;&#x5C42;_x0020_1">
		<circle cx=".847" cy=".847" fill="#48b02c" r=".847"/>
		<g id="_214249648" fill="#fff">
			<path id="_213481760" d="m.80431 1.20752v-.13529-.02903-.1153-.01999-.1153-.02903-.02172-.01685-.02903-.06769-.0676-.09845-.01685-.02903-.13529c0-.02329.01904-.04234.04233-.04234.02329 0 .04233.01919.04233.04234v.13529.02903.01685.09845.0676.06769.02903.01685.02172.02903.1153.01999.1153.02903.13529c0 .02329-.01904.04234-.04233.04234-.02329 0-.04233-.01905-.04233-.04234z"/>
			<path id="_214250320" d="m.81671 1.1777.0444-.04441.05755-.05755.18393-.18387c.01647-.01647.0434-.01648.05987-.00001.01647.01647.01624.04363-.00001.05987l-.18393.18388-.05754.05754-.04441.04441c-.01632.01632-.0434.01647-.05987.00001-.01647-.01647-.01646-.04341.00001-.05987z"/>
			<path id="_213484328" d="m.87658 1.1777-.0444-.04441-.05755-.05755-.18387-.18381c-.01647-.01647-.04341-.01648-.05987-.00001-.01647.01647-.01624.04363 0 .05987l.18388.18382.05754.05754.04441.04441c.01632.01632.0434.01647.05987.00001.01647-.01647.01646-.04341-.00001-.05987z"/>
			<path id="_43960744" d="m1.11167 1.42076h-.01845-.02903-.08781-.02903-.01845-.11684-.04921-.01685-.02903-.07096-.01685-.02903-.01845-.11684c-.02329 0-.04234-.01904-.04234-.04233 0-.02329.01919-.04233.04234-.04233h.11684.01845.02903.01685.07096.02903.01685.04921.11684.01845.02903.08781.02903.01845.11684c.02329 0 .04234.01904.04234.04233 0 .02329-.01905.04233-.04234.04233z"/>
		</g>
	</g>
</svg>