<svg width="20" height="20" clip-rule="evenodd" fill-rule="evenodd" image-rendering="optimizeQuality" shape-rendering="geometricPrecision" text-rendering="geometricPrecision" viewBox="0 0 1.69334 1.69334" xmlns="http://www.w3.org/2000/svg"><g id="&#x56FE;&#x5C42;_x0020_1"><circle fill="#ff4141" r=".763" transform="matrix(0 1.109 -1.109 0 .847 .847)"/><g id="_214236496" fill="#fff"><path id="_210178456" d="m.92837.20407.24807.49272.25204.50059c.00742.01475.01098.0305.01069.04619v.00016c-.00031.01591-.00444.03156-.01236.0459-.00822.01482-.01954.02667-.03312.03499l.00005.00008c-.01399.00856-.02998.01311-.04699.01311h-.50008-.5001c-.01689 0-.03281-.00456-.04682-.01312l-.00012-.00008-.00005.00008c-.01345-.00823-.02479-.02012-.03305-.03507-.00792-.01433-.01206-.03004-.01236-.04607-.00029-.01567.00326-.03142.01068-.04617l.25204-.50059.24806-.49272c.008-.01588.01942-.0286.03319-.03741.01437-.0092.03091-.01417.04852-.01417s.03415.00495.04852.01416c.01378.00883.0252.02156.03319.03742zm.17267.53023-.24807-.49271c-.00098-.00194-.00217-.00338-.00343-.00419-.00065-.00042-.00164-.00065-.00288-.00065s-.00223.00024-.00288.00066c-.00126.00081-.00246.00225-.00343.00418l-.24806.49271-.25204.5006c-.0012.0024-.00178.00491-.00174.00733.00003.00209.00075.00446.0021.00691.00099.00179.00213.00309.00329.0038l-.00004.00007c.00063.00035.00156.00054.00271.00054h.5001.50008c.00112 0 .00204-.00021.00267-.0006l.00005.00008.00012-.00008c.00101-.00062.00209-.00191.00314-.0038.00133-.00241.00204-.00479.0021-.00697v-.0001c.00001-.00237-.00057-.00482-.00175-.00718z" fill-rule="nonzero"/><path id="_214250944" d="m.889.92475v-.08453-.02903.00007-.05607-.01685-.02903-.13529c0-.02329-.01904-.04234-.04233-.04234-.02329 0-.04233.01931-.04233.04234v.13529.02903.01685.05607-.00007.02903.08453c0 .02312.01904.04234.04233.04234.02329 0 .04233-.01905.04233-.04234z"/><circle id="_214250896" cx=".847" cy="1.069" r=".042"/></g></g></svg>