<svg viewBox="0 0 512 512" height="24" width="24" xmlns="http://www.w3.org/2000/svg"><path d="m512 256c0 141.386719-114.613281 256-256 256s-256-114.613281-256-256 114.613281-256 256-256 256 114.613281 256 256zm0 0" fill="#6dcd01"/><path d="m360.871094 242.6875-144-96c-4.910156-3.269531-11.21875-3.574219-16.421875-.792969-5.199219 2.785157-8.449219 8.207031-8.449219 14.105469v192c0 5.898438 3.25 11.320312 8.449219 14.105469 5.203125 2.78125 11.511719 2.476562 16.421875-.792969l144-96c4.453125-2.96875 7.125-7.964844 7.125-13.3125s-2.671875-10.34375-7.125-13.3125zm0 0" fill="#fff"/></svg>