<svg xmlns="http://www.w3.org/2000/svg" version="1.1" xmlns:xlink="http://www.w3.org/1999/xlink" width="20" height="20" x="0" y="0" viewBox="0 0 1.693 1.693" style="enable-background:new 0 0 512 512" xml:space="preserve" fill-rule="evenodd" class=""><g transform="matrix(1,0,0,-1,0,1.694000005722046)"><circle cx=".847" cy=".847" r=".847" fill="#48b02c" opacity="1" data-original="#48b02c" class=""></circle><g fill="#fff"><path d="M.804 1.208V.28C.804.258.824.24.847.24.87.239.889.258.889.28V1.208a.042.042 0 0 1-.042.042.042.042 0 0 1-.043-.042z" fill="#ffffff" opacity="1" data-original="#ffffff" class=""></path><path d="m.817 1.178.044-.045.058-.057.184-.184a.042.042 0 0 1 .06 0 .043.043 0 0 1 0 .06l-.184.184-.058.057-.044.045a.043.043 0 0 1-.06 0 .042.042 0 0 1 0-.06z" fill="#ffffff" opacity="1" data-original="#ffffff" class=""></path><path d="m.877 1.178-.045-.045-.057-.057L.59.892a.042.042 0 0 0-.06 0 .043.043 0 0 0 0 .06l.184.184.057.057.045.045a.043.043 0 0 0 .06 0 .042.042 0 0 0 0-.06zM1.112 1.42H.465a.042.042 0 0 1-.043-.042c0-.023.02-.042.043-.042h.764c.023 0 .042.02.042.042 0 .024-.02.043-.042.043z" fill="#ffffff" opacity="1" data-original="#ffffff" class=""></path></g></g></svg>