<svg width="20" height="20" clip-rule="evenodd" fill-rule="evenodd" image-rendering="optimizeQuality" shape-rendering="geometricPrecision" text-rendering="geometricPrecision" viewBox="0 0 1.69334 1.69334" xmlns="http://www.w3.org/2000/svg"><g id="&#x56FE;&#x5C42;_x0020_1"><circle cx=".847" cy=".847" fill="#ff4141" r=".847"/><g id="_210184600" fill="#fff"><path id="_210187768" d="m.84667.25399c.16362 0 .31179.06637.41905.17363s.17363.25543.17363.41905-.06637.31179-.17363.41905-.25543.17363-.41905.17363-.31179-.06637-.41905-.17363-.17363-.25543-.17363-.41905.06637-.31179.17363-.41905.25543-.17363.41905-.17363zm.35919.23349c-.09193-.09193-.21894-.14881-.35919-.14881s-.26726.05688-.35919.14881-.14881.21894-.14881.35919.05688.26726.14881.35919.21894.14881.35919.14881.26726-.05688.35919-.14881.14881-.21894.14881-.35919-.05688-.26726-.14881-.35919z" fill-rule="nonzero"/><path id="_210185464" d="m.53168.80434h.16432.30134.16432c.02329 0 .04234.01904.04234.04233 0 .02329-.01905.04233-.04234.04233h-.16432-.30134-.16432c-.02329 0-.04234-.01904-.04234-.04233 0-.02329.01905-.04233.04234-.04233z"/></g></g></svg>